<svg width="201" height="27" viewBox="0 0 201 27" fill="none" xmlns="http://www.w3.org/2000/svg">
<path d="M0.576 0.727999H5.148C5.628 0.727999 6.024 0.919999 6.336 1.304L19.296 18.152V1.16C19.296 1.04 19.332 0.943999 19.404 0.872C19.5 0.775999 19.608 0.727999 19.728 0.727999H23.436C23.556 0.727999 23.652 0.775999 23.724 0.872C23.82 0.943999 23.868 1.04 23.868 1.16V25.496C23.868 25.784 23.724 25.928 23.436 25.928H20.016C19.536 25.928 19.14 25.736 18.828 25.352L0.324 1.232C0.228 1.136 0.216 1.028 0.288 0.907999C0.36 0.787999 0.456 0.727999 0.576 0.727999ZM26.7615 25.496L45.2655 1.376C45.5775 0.991999 45.9735 0.799998 46.4535 0.799998H49.8735C50.1615 0.799998 50.3055 0.943999 50.3055 1.232V25.568C50.3055 25.856 50.1615 26 49.8735 26H46.4535C45.9735 26 45.5775 25.808 45.2655 25.424L39.0375 17.288L32.7735 25.424C32.4615 25.808 32.0655 26 31.5855 26H27.0135C26.8935 26 26.7975 25.952 26.7255 25.856C26.6535 25.736 26.6655 25.616 26.7615 25.496ZM42.0255 13.4L45.7335 18.224V8.576L42.0255 13.4ZM55.935 0.799998H59.643C59.955 0.799998 60.111 0.943999 60.111 1.232V21.428H70.191C70.335 21.428 70.431 21.488 70.479 21.608C70.551 21.728 70.551 21.836 70.479 21.932L67.779 25.424C67.467 25.808 67.083 26 66.627 26H55.935C55.815 26 55.707 25.964 55.611 25.892C55.539 25.796 55.503 25.688 55.503 25.568V1.232C55.503 1.112 55.539 1.016 55.611 0.943999C55.707 0.847998 55.815 0.799998 55.935 0.799998ZM72.3192 13.292C72.3192 11.444 72.6552 9.728 73.3272 8.144C74.0232 6.536 74.9472 5.156 76.0992 4.004C77.2752 2.828 78.6552 1.916 80.2392 1.268C81.8232 0.595999 83.5272 0.271999 85.3512 0.295998C87.1752 0.319998 88.8792 0.679998 90.4632 1.376C92.0472 2.072 93.4152 3.02 94.5672 4.22C95.7432 5.42 96.6672 6.824 97.3392 8.432C98.0112 10.016 98.3352 11.708 98.3112 13.508C98.2872 15.332 97.9272 17.036 97.2312 18.62C96.5352 20.204 95.5872 21.584 94.3872 22.76C93.2112 23.936 91.8312 24.86 90.2472 25.532C88.6632 26.18 86.9592 26.504 85.1352 26.504C83.3352 26.504 81.6432 26.168 80.0592 25.496C78.4992 24.8 77.1432 23.864 75.9912 22.688C74.8392 21.488 73.9392 20.084 73.2912 18.476C72.6432 16.868 72.3192 15.14 72.3192 13.292ZM76.9272 13.472C76.9272 14.648 77.1552 15.764 77.6112 16.82C78.0672 17.876 78.6792 18.8 79.4472 19.592C80.2152 20.384 81.1032 21.008 82.1112 21.464C83.1192 21.92 84.1992 22.148 85.3512 22.148C86.4792 22.124 87.5472 21.872 88.5552 21.392C89.5632 20.912 90.4392 20.276 91.1832 19.484C91.9512 18.668 92.5512 17.732 92.9832 16.676C93.4152 15.596 93.6192 14.468 93.5952 13.292C93.5952 12.116 93.3672 11 92.9112 9.944C92.4552 8.888 91.8432 7.976 91.0752 7.208C90.3072 6.416 89.4072 5.792 88.3752 5.336C87.3672 4.88 86.2992 4.652 85.1712 4.652C84.0432 4.676 82.9752 4.928 81.9672 5.408C80.9592 5.864 80.0832 6.5 79.3392 7.316C78.5952 8.108 78.0072 9.032 77.5752 10.088C77.1432 11.144 76.9272 12.272 76.9272 13.472ZM102.437 1.16C102.437 1.04 102.473 0.943999 102.545 0.872C102.641 0.775999 102.749 0.727999 102.869 0.727999H121.877C121.997 0.727999 122.093 0.775999 122.165 0.872C122.261 0.943999 122.309 1.04 122.309 1.16V6.452C122.309 6.788 122.201 7.088 121.985 7.352L116.297 14.804L124.433 25.424C124.505 25.544 124.505 25.664 124.433 25.784C124.385 25.88 124.301 25.928 124.181 25.928H119.609C119.129 25.928 118.733 25.736 118.421 25.352L110.537 15.092C110.369 14.9 110.369 14.72 110.537 14.552L117.629 5.3H107.045V25.496C107.045 25.784 106.889 25.928 106.577 25.928H102.869C102.749 25.928 102.641 25.892 102.545 25.82C102.473 25.724 102.437 25.616 102.437 25.496V1.16ZM125.094 25.496L143.598 1.376C143.91 0.991999 144.306 0.799998 144.786 0.799998H148.206C148.494 0.799998 148.638 0.943999 148.638 1.232V25.568C148.638 25.856 148.494 26 148.206 26H144.786C144.306 26 143.91 25.808 143.598 25.424L137.37 17.288L131.106 25.424C130.794 25.808 130.398 26 129.918 26H125.346C125.226 26 125.13 25.952 125.058 25.856C124.986 25.736 124.998 25.616 125.094 25.496ZM140.358 13.4L144.066 18.224V8.576L140.358 13.4ZM153.835 25.568V1.232C153.835 1.112 153.871 1.016 153.943 0.943999C154.039 0.847998 154.147 0.799998 154.267 0.799998H157.687C158.167 0.799998 158.563 0.991999 158.875 1.376L171.835 18.224V1.232C171.835 0.943999 171.979 0.799998 172.267 0.799998H175.975C176.263 0.799998 176.407 0.943999 176.407 1.232V25.568C176.407 25.856 176.263 26 175.975 26H172.555C172.075 26 171.679 25.808 171.367 25.424L158.443 8.576V25.568C158.443 25.856 158.287 26 157.975 26H154.267C154.147 26 154.039 25.964 153.943 25.892C153.871 25.796 153.835 25.688 153.835 25.568ZM180.348 1.16C180.348 1.04 180.384 0.943999 180.456 0.872C180.552 0.775999 180.66 0.727999 180.78 0.727999H196.404C196.884 0.727999 197.28 0.919999 197.592 1.304L200.256 4.796C200.352 4.916 200.364 5.036 200.292 5.156C200.244 5.252 200.148 5.3 200.004 5.3H191.976V25.496C191.976 25.784 191.832 25.928 191.544 25.928H187.836C187.548 25.928 187.404 25.784 187.404 25.496V5.3H180.78C180.66 5.3 180.552 5.264 180.456 5.192C180.384 5.096 180.348 4.988 180.348 4.868V1.16Z" fill="#FF4655"/>
</svg>
